<?xml version="1.0" encoding="UTF-8"?>
<!DOCTYPE svg PUBLIC "-//W3C//DTD SVG 1.1//EN" "http://www.w3.org/Graphics/SVG/1.1/DTD/svg11.dtd">
<svg xmlns="http://www.w3.org/2000/svg" version="1.1" width="632px" height="623px" style="shape-rendering:geometricPrecision; text-rendering:geometricPrecision; image-rendering:optimizeQuality; fill-rule:evenodd; clip-rule:evenodd" xmlns:xlink="http://www.w3.org/1999/xlink">
<g><path style="opacity:0.896" fill="#fefffe" d="M 292.5,2.5 C 400.43,-1.43344 488.597,37.8999 557,120.5C 577.812,147.444 593.979,177.111 605.5,209.5C 600.833,210.833 596.167,210.833 591.5,209.5C 561.828,131.329 509.161,74.4953 433.5,39C 343.618,1.55883 255.618,5.55883 169.5,51C 105.93,87.746 61.2629,140.579 35.5,209.5C 30.8333,210.833 26.1667,210.833 21.5,209.5C 57.0392,114.46 122.706,50.2938 218.5,17C 242.817,9.63604 267.484,4.80271 292.5,2.5 Z"/></g>
<g><path style="opacity:0.919" fill="#fefffe" d="M 342.5,241.5 C 367.465,265.965 392.299,290.632 417,315.5C 417.5,292.502 417.667,269.502 417.5,246.5C 423.167,246.5 428.833,246.5 434.5,246.5C 434.667,283.168 434.5,319.835 434,356.5C 408.972,331.805 384.305,306.805 360,281.5C 359.5,304.831 359.333,328.164 359.5,351.5C 353.833,351.5 348.167,351.5 342.5,351.5C 342.5,314.833 342.5,278.167 342.5,241.5 Z"/></g>
<g><path style="opacity:0.944" fill="#fcfdff" d="M 50.5,245.5 C 82.383,244.181 102.55,258.848 111,289.5C 113.942,323.148 99.1089,343.982 66.5,352C 37.0459,354.534 17.2125,342.034 7,314.5C 0.779501,278.249 15.2795,255.249 50.5,245.5 Z M 52.5,261.5 C 75.376,260.681 89.5427,271.347 95,293.5C 95.129,323.372 80.2957,337.538 50.5,336C 29.5916,329.025 20.0916,314.525 22,292.5C 26.3489,276.319 36.5156,265.985 52.5,261.5 Z"/></g>
<g><path style="opacity:0.922" fill="#fefffe" d="M 528.5,264.5 C 532.833,264.5 537.167,264.5 541.5,264.5C 541.5,273.167 541.5,281.833 541.5,290.5C 546.833,290.5 552.167,290.5 557.5,290.5C 557.5,294.5 557.5,298.5 557.5,302.5C 552.167,302.5 546.833,302.5 541.5,302.5C 541.5,318.833 541.5,335.167 541.5,351.5C 537.167,351.5 532.833,351.5 528.5,351.5C 528.5,335.167 528.5,318.833 528.5,302.5C 524.833,302.5 521.167,302.5 517.5,302.5C 517.5,298.5 517.5,294.5 517.5,290.5C 521.167,290.5 524.833,290.5 528.5,290.5C 528.5,281.833 528.5,273.167 528.5,264.5 Z"/></g>
<g><path style="opacity:0.919" fill="#fcfdff" d="M 149.5,289.5 C 173.156,287.001 186.156,297.501 188.5,321C 187.685,336.989 179.685,347.322 164.5,352C 154.171,354.297 145.004,352.131 137,345.5C 136.5,357.162 136.333,368.829 136.5,380.5C 131.833,380.5 127.167,380.5 122.5,380.5C 122.5,350.5 122.5,320.5 122.5,290.5C 126.833,290.5 131.167,290.5 135.5,290.5C 135.21,297.065 136.876,298.231 140.5,294C 143.592,292.454 146.592,290.954 149.5,289.5 Z M 149.5,302.5 C 168.74,301.629 176.24,310.629 172,329.5C 164.584,340.255 155.084,342.422 143.5,336C 135.722,328.054 134.555,319.221 140,309.5C 142.79,306.535 145.957,304.202 149.5,302.5 Z"/></g>
<g><path style="opacity:0.916" fill="#fcfdff" d="M 220.5,289.5 C 238.834,286.848 251.167,294.182 257.5,311.5C 242.288,317.938 226.955,324.105 211.5,330C 216.751,337.956 224.085,340.956 233.5,339C 236.974,337.581 240.307,336.248 243.5,335C 246.5,338 249.5,341 252.5,344C 243.178,351.664 232.512,354.33 220.5,352C 198.408,343.43 191.575,327.93 200,305.5C 204.97,297.687 211.804,292.354 220.5,289.5 Z M 222.5,302.5 C 229.56,301.171 235.56,303.004 240.5,308C 230.361,312.739 220.028,316.906 209.5,320.5C 210.427,311.958 214.761,305.958 222.5,302.5 Z"/></g>
<g><path style="opacity:0.919" fill="#fefffe" d="M 295.5,289.5 C 301.593,289.139 307.593,289.639 313.5,291C 318.147,293.106 321.314,296.606 323,301.5C 323.5,318.163 323.667,334.83 323.5,351.5C 319.167,351.5 314.833,351.5 310.5,351.5C 310.667,337.829 310.5,324.163 310,310.5C 308.226,304.895 304.393,302.229 298.5,302.5C 290.114,302.712 284.28,306.712 281,314.5C 279.582,326.772 279.082,339.105 279.5,351.5C 275.167,351.5 270.833,351.5 266.5,351.5C 266.5,331.167 266.5,310.833 266.5,290.5C 270.5,290.5 274.5,290.5 278.5,290.5C 278.146,294.637 278.646,298.637 280,302.5C 283.869,296.452 289.035,292.118 295.5,289.5 Z"/></g>
<g><path style="opacity:0.912" fill="#fefeff" d="M 471.5,289.5 C 495.286,286.634 508.953,296.967 512.5,320.5C 509.469,344.686 495.802,355.186 471.5,352C 454.306,346.463 446.473,334.629 448,316.5C 450.696,302.974 458.529,293.974 471.5,289.5 Z M 474.5,302.5 C 491.647,301.48 499.481,309.48 498,326.5C 492.607,338.111 483.774,341.944 471.5,338C 457.962,327.74 457.296,316.74 469.5,305C 471.315,304.243 472.981,303.41 474.5,302.5 Z"/></g>
<g><path style="opacity:0.918" fill="#fdfdff" d="M 585.5,289.5 C 603.858,286.883 616.192,294.216 622.5,311.5C 607.288,317.938 591.955,324.105 576.5,330C 582.029,338.259 589.696,341.259 599.5,339C 602.525,337.312 605.525,335.979 608.5,335C 611.5,338 614.5,341 617.5,344C 608.178,351.664 597.512,354.33 585.5,352C 567.663,345.836 559.83,333.336 562,314.5C 565.607,302.063 573.441,293.73 585.5,289.5 Z M 587.5,302.5 C 594.56,301.171 600.56,303.004 605.5,308C 595.391,312.721 585.058,316.888 574.5,320.5C 575.792,312.221 580.125,306.221 587.5,302.5 Z"/></g>
<g><path style="opacity:0.896" fill="#fefffe" d="M 21.5,411.5 C 26.2137,411.173 30.8804,411.507 35.5,412.5C 65.1724,490.671 117.839,547.505 193.5,583C 283.382,620.441 371.382,616.441 457.5,571C 521.07,534.254 565.737,481.421 591.5,412.5C 596.167,411.167 600.833,411.167 605.5,412.5C 569.961,507.54 504.294,571.706 408.5,605C 310.406,633.846 219.072,619.846 134.5,563C 81.194,524.246 43.5273,473.746 21.5,411.5 Z"/></g>
</svg>
